<?xml version="1.0" encoding="UTF-8"?>
<svg version="1.1" xmlns="http://www.w3.org/2000/svg" width="500" height="500">
<path d="M0 0 C15.23115463 13.4036197 15.23115463 13.4036197 20 19 C20 19.66 20 20.32 20 21 C20.56203125 21.21785156 21.1240625 21.43570313 21.703125 21.66015625 C50.95706636 38.72495538 70.31155468 94.27484508 78.39477539 124.78857422 C88.77940071 165.22049084 88.29341212 206.39479779 79 247 C78.71511719 248.26457031 78.43023437 249.52914063 78.13671875 250.83203125 C69.39888779 286.36074482 49.18947501 327.90202307 22 353 C21.34 353 20.68 353 20 353 C19.7628125 353.56203125 19.525625 354.1240625 19.28125 354.703125 C17.71052303 357.51894042 15.78528536 359.47955416 13.5 361.75 C12.7059375 362.54921875 11.911875 363.3484375 11.09375 364.171875 C9 366 9 366 7 366 C6.77054687 366.57363281 6.54109375 367.14726562 6.3046875 367.73828125 C3.5297191 372.54878036 -1.67715393 375.63718374 -6 379 C-6.93457031 379.73734375 -7.86914062 380.4746875 -8.83203125 381.234375 C-16.21115701 386.92770869 -23.94433279 391.90989487 -31.91162109 396.73339844 C-33.38852376 397.62913973 -34.85967884 398.53439008 -36.32666016 399.44628906 C-42.41346732 403.18812941 -48.63068481 406.40060364 -55.125 409.375 C-56.15109375 409.84615234 -57.1771875 410.31730469 -58.234375 410.80273438 C-68.41851799 415.36825347 -78.87354378 418.86542495 -89.51611328 422.18774414 C-91.73582682 422.91361272 -93.88717359 423.72321817 -96.0546875 424.58984375 C-100.63010048 426.34255025 -105.31502144 427.19798462 -110.125 428.0625 C-110.97320312 428.22298828 -111.82140625 428.38347656 -112.6953125 428.54882812 C-115.45919985 429.06088761 -118.22852039 429.53089061 -121 430 C-121.96897217 430.18385254 -122.93794434 430.36770508 -123.9362793 430.55712891 C-134.68252048 432.39382761 -145.40290451 432.30304473 -156.27709961 432.26074219 C-159.55926945 432.25001056 -162.84089348 432.26069413 -166.12304688 432.2734375 C-176.62252741 432.28095188 -186.68676513 432.11739109 -197 430 C-198.86025597 429.67595853 -200.72092816 429.3542964 -202.58203125 429.03515625 C-204.32595139 428.71326143 -206.0694504 428.38907588 -207.8125 428.0625 C-209.12637695 427.82756836 -209.12637695 427.82756836 -210.46679688 427.58789062 C-215.22637569 426.69569176 -219.6117879 425.536086 -224.10766602 423.73852539 C-227.19972264 422.53178158 -230.38352519 421.63630171 -233.5625 420.6875 C-265.39922267 410.88331657 -293.58305354 394.3283166 -319 373 C-319.99580078 372.20722656 -319.99580078 372.20722656 -321.01171875 371.3984375 C-322.37745223 370.30967095 -323.6965142 369.16256841 -325 368 C-325 367.34 -325 366.68 -325 366 C-325.84304688 365.64421875 -325.84304688 365.64421875 -326.703125 365.28125 C-329.51894042 363.71052303 -331.47955416 361.78528536 -333.75 359.5 C-334.54921875 358.7059375 -335.3484375 357.911875 -336.171875 357.09375 C-338 355 -338 355 -338 353 C-338.57363281 352.77054687 -339.14726562 352.54109375 -339.73828125 352.3046875 C-344.54878036 349.5297191 -347.63718374 344.32284607 -351 340 C-351.73734375 339.06542969 -352.4746875 338.13085938 -353.234375 337.16796875 C-358.96714368 329.73773133 -363.94432889 321.93970912 -368.81518555 313.92724609 C-369.60594647 312.64097642 -370.40960411 311.36254799 -371.22583008 310.09228516 C-394.06653409 274.48279126 -404.20205725 229.69391964 -404.25 187.8125 C-404.25133942 187.11534882 -404.25267883 186.41819763 -404.25405884 185.69992065 C-404.24901545 173.49579098 -403.3351052 161.60391572 -401.40576172 149.53955078 C-401.03609053 147.22588067 -400.70250649 144.91030721 -400.37890625 142.58984375 C-393.43840459 95.65830458 -368.56259326 50.49005112 -335.6875 16.734375 C-334.09197277 15.09452757 -332.51375075 13.43959714 -330.9375 11.78125 C-324.38314207 4.96666942 -317.37014299 -0.97432047 -309.80761719 -6.64111328 C-308.0078767 -7.99407864 -306.22628451 -9.36855445 -304.4453125 -10.74609375 C-281.26701314 -28.45885023 -254.79651693 -40.55687651 -227 -49 C-225.46735986 -49.48670195 -223.93480101 -49.97366002 -222.40234375 -50.4609375 C-217.97529223 -51.82801905 -213.51501799 -52.96308883 -209 -54 C-208.16662109 -54.19609863 -207.33324219 -54.39219727 -206.47460938 -54.59423828 C-134.50780852 -70.64372724 -55.5013954 -47.26290702 0 0 Z " fill="#04B80C" transform="translate(409,63)"/>
<path d="M0 0 C0.79325117 -0.00467997 1.58650234 -0.00935994 2.40379143 -0.01418173 C5.04687373 -0.02609387 7.6894339 -0.01668947 10.33251953 -0.00723267 C12.23350323 -0.01130005 14.13448456 -0.01664287 16.03546143 -0.02316284 C21.18830427 -0.03682236 26.34096662 -0.03154338 31.49381256 -0.02202559 C36.89041118 -0.01442196 42.28699451 -0.02147656 47.68359375 -0.02618408 C56.74563365 -0.03163957 65.80760016 -0.0244554 74.86962891 -0.01016235 C85.34146188 0.00616373 95.81311962 0.00087508 106.28494835 -0.01564157 C115.28131801 -0.02926228 124.27763497 -0.03117322 133.27401161 -0.02332556 C138.6447601 -0.01865228 144.01542626 -0.01801476 149.38616943 -0.02793503 C154.43578023 -0.03661089 159.48516543 -0.03057134 164.53475189 -0.01325226 C166.38625464 -0.00929075 168.23777641 -0.01041572 170.08927155 -0.01704025 C172.61999069 -0.02525912 175.14999053 -0.0149303 177.68066406 0 C178.4103433 -0.00669217 179.14002254 -0.01338433 179.89181328 -0.02027929 C185.57994132 0.0446458 190.28114732 1.248297 194.71533203 4.94345093 C197.17601493 8.08765685 196.98873731 10.57043032 197.03320312 14.49545288 C197.04926605 15.78051224 197.06532898 17.06557159 197.08187866 18.38957214 C197.09336553 19.7994521 197.10397417 21.20933945 197.11376953 22.61923218 C197.11909321 23.32827383 197.12441689 24.03731548 197.12990189 24.76784325 C197.15662825 28.52127374 197.17600416 32.27467105 197.19042969 36.02816772 C197.20707122 39.90219488 197.25184458 43.77537024 197.30280113 47.64907551 C197.33648342 50.63026386 197.34800806 53.61125032 197.35365677 56.59261131 C197.36036734 58.02037245 197.37558476 59.44812038 197.39954758 60.87569618 C197.43121154 62.87631839 197.42823328 64.87739746 197.42382812 66.87826538 C197.43191498 68.01584793 197.44000183 69.15343048 197.44833374 70.32548523 C196.6191974 74.49224597 195.12472047 75.70160582 191.84033203 78.38095093 C191.19603209 78.91509582 190.55173216 79.4492407 189.88790798 79.9995718 C183.95564724 84.48835253 179.31116653 85.22508365 171.99633789 85.06210327 C170.42891846 85.06341751 170.42891846 85.06341751 168.82983398 85.0647583 C165.40416556 85.06060554 161.98049862 85.01406017 158.55517578 84.96688843 C156.16908335 84.95568814 153.78297705 84.94715189 151.39686584 84.94116211 C145.13792357 84.91832983 138.87982597 84.85945332 132.62121582 84.79293823 C126.22627181 84.73139566 119.83119039 84.70412145 113.43603516 84.67391968 C100.90370461 84.60970561 88.37222094 84.50422474 75.84033203 84.38095093 C75.84033203 97.25095093 75.84033203 110.12095093 75.84033203 123.38095093 C84.05617188 123.3287439 84.05617188 123.3287439 92.43798828 123.27548218 C95.91521254 123.2601472 99.39239489 123.24570489 102.86962891 123.23446655 C108.38460995 123.21655758 113.89944107 123.19540814 119.41430664 123.15463257 C123.86228004 123.12195246 128.31009258 123.10407968 132.7581768 123.0963192 C134.45218881 123.09079119 136.14619236 123.07999634 137.84013557 123.06376076 C140.21937978 123.0418711 142.59796565 123.03898876 144.97729492 123.04037476 C145.67213486 123.02958893 146.36697479 123.0188031 147.08287048 123.00769043 C152.10506119 123.03919018 155.44669588 124.12672683 159.84033203 126.38095093 C163.50424195 130.28912151 163.96773584 133.88722444 164.01733398 139.10238647 C164.03658684 140.86518196 164.03658684 140.86518196 164.05622864 142.66358948 C164.06361557 143.93543594 164.0710025 145.20728241 164.07861328 146.51766968 C164.08668503 147.82621414 164.09475677 149.13475861 164.10307312 150.48295593 C164.11808996 153.25616322 164.12793159 156.02934502 164.13549805 158.80258179 C164.14653372 162.33875729 164.18090387 165.87429853 164.22066975 169.41025066 C164.25325863 172.80019708 164.25762567 176.1900788 164.26611328 179.58016968 C164.28362137 180.84189499 164.30112946 182.1036203 164.31916809 183.40357971 C164.30175765 190.49112801 163.87721268 195.44585338 159.84033203 201.38095093 C156.59033203 202.38095093 156.59033203 202.38095093 153.84033203 202.38095093 C153.51033203 203.37095093 153.18033203 204.36095093 152.84033203 205.38095093 C147.96670679 207.98621572 144.2970959 208.75227256 138.71166992 208.7215271 C137.70064209 208.72218422 137.70064209 208.72218422 136.66918945 208.72285461 C134.46681572 208.72078376 132.2652271 208.69753548 130.06298828 208.67391968 C128.52600012 208.66831762 126.98900656 208.6640504 125.45201111 208.66105652 C121.4258215 208.64965566 117.39996159 208.6202302 113.37390137 208.58694458 C109.25793924 208.55614044 105.14192333 208.54252917 101.02587891 208.5274353 C92.96387941 208.4953553 84.90214685 208.44421742 76.84033203 208.38095093 C76.84921448 209.37796021 76.85809692 210.37496948 76.86724854 211.40219116 C76.94848795 220.81796719 77.008371 230.23367169 77.04758072 239.64971924 C77.06841688 244.49012916 77.09666169 249.33025516 77.14208984 254.17050171 C77.18568962 258.84542617 77.20949899 263.52007827 77.219841 268.19519043 C77.22720707 269.97491744 77.24159125 271.75463029 77.26325226 273.53424072 C77.29247481 276.03554999 77.29628028 278.53574725 77.29443359 281.03720093 C77.3088147 281.76584854 77.3231958 282.49449615 77.3380127 283.245224 C77.29502709 288.6591666 75.84359832 292.85711003 72.84033203 297.38095093 C70.36767578 299.43954468 70.36767578 299.43954468 67.77783203 300.81845093 C66.92060547 301.29153687 66.06337891 301.7646228 65.18017578 302.25204468 C60.90491528 304.31473297 57.26918409 304.53455393 52.6184082 304.54208374 C51.52030067 304.5495311 51.52030067 304.5495311 50.40000916 304.55712891 C47.97776346 304.57173525 45.55558328 304.57855028 43.13330078 304.58407593 C41.44802346 304.58982903 39.76274616 304.59558674 38.07746887 304.60134888 C34.54260961 304.61185478 31.00777307 304.61770001 27.47290039 304.6211853 C22.95019902 304.6266665 18.42779924 304.65068814 13.90519238 304.67915726 C10.42299023 304.69781034 6.94086032 304.70299068 3.45861244 304.70452118 C1.79169378 304.70754265 0.12477624 304.71555412 -1.54209328 304.72870636 C-3.87814686 304.74582164 -6.21346916 304.74387346 -8.54956055 304.73739624 C-9.23393188 304.74661102 -9.91830322 304.75582581 -10.62341309 304.76531982 C-15.19689522 304.72573187 -18.3716759 303.96887045 -22.15966797 301.38095093 C-25.93150342 295.86539269 -25.58075085 290.45930285 -25.5406189 284.0319519 C-25.54529887 282.88358054 -25.54997884 281.73520917 -25.55480063 280.55203867 C-25.56468424 277.37321845 -25.56114342 274.19474289 -25.55184197 271.01593137 C-25.54504912 267.58437866 -25.55553387 264.15287223 -25.56378174 260.72132874 C-25.57711877 254.00238738 -25.57424149 247.28354659 -25.56554382 240.5646013 C-25.55876755 235.10378404 -25.5578503 229.64299495 -25.56111526 224.18217468 C-25.56157496 223.40484345 -25.56203466 222.62751222 -25.56250829 221.8266255 C-25.56346747 220.24747208 -25.56444011 218.66831867 -25.56542607 217.08916527 C-25.57397987 202.28283824 -25.56414598 187.47656694 -25.54802497 172.67024904 C-25.53462179 159.96685484 -25.53694988 147.26354287 -25.55078125 134.56015015 C-25.56683724 119.80665975 -25.5731559 105.0532182 -25.56394446 90.29972029 C-25.56298882 88.72638926 -25.5620457 87.15305822 -25.56111526 85.57972717 C-25.56065244 84.80562639 -25.56018961 84.0315256 -25.55971276 83.23396721 C-25.55712293 77.77996422 -25.56149372 72.32599221 -25.56855392 66.87199402 C-25.57696933 60.22501276 -25.57468797 53.57813777 -25.55871169 46.93116868 C-25.55082947 43.54002796 -25.54773641 40.14906442 -25.55765915 36.75792503 C-25.56583487 33.0817556 -25.5556003 29.4060873 -25.5406189 25.72994995 C-25.54731106 24.65816325 -25.55400323 23.58637654 -25.56089818 22.48211145 C-25.51786451 17.05243328 -25.31518897 13.02428218 -22.15966797 8.38095093 C-18.05966797 5.38095093 -18.05966797 5.38095093 -15.15966797 5.38095093 C-15.15966797 4.72095093 -15.15966797 4.06095093 -15.15966797 3.38095093 C-9.9885876 0.82795859 -5.79180451 -0.05311884 0 0 Z " fill="#FEFEFE" transform="translate(175.15966796875,94.61904907226563)"/>
<path d="M0 0 C1.18475021 -0.00445668 1.18475021 -0.00445668 2.39343476 -0.0090034 C5.04877916 -0.01769781 7.70407852 -0.01919928 10.35943604 -0.02069092 C12.25982764 -0.0253186 14.16021832 -0.03034319 16.06060791 -0.03573608 C21.23015654 -0.04886761 26.39969217 -0.0553066 31.56925488 -0.05974674 C34.7984122 -0.06267647 38.02756596 -0.06678111 41.2567215 -0.07125092 C51.35826023 -0.0849283 61.45979083 -0.09459358 71.56133819 -0.09845281 C83.22513374 -0.10293322 94.88881209 -0.12047939 106.55257201 -0.1494534 C115.56583323 -0.17106658 124.57906147 -0.18115691 133.59234834 -0.18249393 C138.97658684 -0.18354228 144.36071521 -0.1894566 149.74492645 -0.20731354 C154.81087504 -0.2237877 159.87663062 -0.22595285 164.94259644 -0.21717453 C166.80055508 -0.21640379 168.65852407 -0.22075178 170.5164566 -0.23063278 C173.05612253 -0.24334574 175.59510421 -0.23747915 178.13476562 -0.22705078 C178.86717335 -0.23510719 179.59958107 -0.24316359 180.35418296 -0.25146413 C186.05470586 -0.19685239 190.75254694 0.9997726 195.1963501 4.70294189 C197.657033 7.84714782 197.46975537 10.32992129 197.51422119 14.25494385 C197.53028412 15.5400032 197.54634705 16.82506256 197.56289673 18.14906311 C197.5743836 19.55894307 197.58499224 20.96883042 197.5947876 22.37872314 C197.60011127 23.0877648 197.60543495 23.79680645 197.61091995 24.52733421 C197.63764631 28.28076471 197.65702223 32.03416201 197.67144775 35.78765869 C197.68808929 39.66168585 197.73286265 43.53486121 197.7838192 47.40856647 C197.81750148 50.38975483 197.82902612 53.37074129 197.83467484 56.35210228 C197.84138541 57.77986341 197.85660283 59.20761135 197.88056564 60.63518715 C197.91222961 62.63580936 197.90925135 64.63688843 197.90484619 66.63775635 C197.91293304 67.7753389 197.9210199 68.91292145 197.92935181 70.0849762 C197.10021547 74.25173693 195.60573854 75.46109678 192.3213501 78.14044189 C191.67705016 78.67458678 191.03275023 79.20873167 190.36892605 79.75906277 C184.4366653 84.2478435 179.7921846 84.98457461 172.47735596 84.82159424 C170.90993652 84.82290848 170.90993652 84.82290848 169.31085205 84.82424927 C165.88518363 84.8200965 162.46151669 84.77355114 159.03619385 84.72637939 C156.65010141 84.71517911 154.26399511 84.70664286 151.87788391 84.70065308 C145.61894163 84.67782079 139.36084404 84.61894428 133.10223389 84.5524292 C126.70728988 84.49088662 120.31220845 84.46361242 113.91705322 84.43341064 C101.38479327 84.36919693 88.85311676 84.26804892 76.3213501 84.14044189 C76.6513501 83.48044189 76.9813501 82.82044189 77.3213501 82.14044189 C112.3013501 82.14044189 147.2813501 82.14044189 183.3213501 82.14044189 C183.3213501 81.48044189 183.3213501 80.82044189 183.3213501 80.14044189 C184.3113501 80.14044189 185.3013501 80.14044189 186.3213501 80.14044189 C186.3213501 79.48044189 186.3213501 78.82044189 186.3213501 78.14044189 C186.9813501 78.14044189 187.6413501 78.14044189 188.3213501 78.14044189 C188.3213501 77.48044189 188.3213501 76.82044189 188.3213501 76.14044189 C188.9813501 76.14044189 189.6413501 76.14044189 190.3213501 76.14044189 C190.36774066 68.14301431 190.40325337 60.14564319 190.42497444 52.1481142 C190.43540075 48.43432669 190.44953879 44.72063141 190.472229 41.00689697 C190.49399866 37.42129297 190.5059274 33.83577754 190.51110458 30.25011253 C190.51479295 28.88380731 190.52199544 27.5175068 190.53281021 26.1512394 C190.54737906 24.23403294 190.54816748 22.31673689 190.54840088 20.3994751 C190.5528421 19.30915482 190.55728333 18.21883453 190.56185913 17.09547424 C190.31164361 14.02118244 189.72198432 11.87958681 188.3213501 9.14044189 C182.92280111 5.1625637 177.99920516 4.99080949 171.4753418 4.98222351 C170.28190151 4.97481654 170.28190151 4.97481654 169.06435132 4.96725994 C166.39578791 4.95189007 163.72724855 4.94352569 161.05865479 4.93511963 C159.14675688 4.92554071 157.23486109 4.91553062 155.32296753 4.90512085 C150.1291687 4.87806728 144.93536077 4.85706014 139.74153042 4.83711886 C134.31493406 4.81526213 128.88836574 4.7878719 123.46179199 4.76106262 C113.18422683 4.71113153 102.9066461 4.66619423 92.62905049 4.62304026 C80.9290409 4.57367146 69.22905944 4.518752 57.52907705 4.46336067 C33.45986098 4.34953421 9.39061792 4.2426966 -14.6786499 4.14044189 C-9.84693002 0.3083882 -6.00690746 -0.007021 0 0 Z " fill="#B3E3B6" transform="translate(174.67864990234375,94.85955810546875)"/>
<path d="M0 0 C1.98 0 3.96 0 6 0 C6 12.87 6 25.74 6 39 C14.21583984 38.94779297 14.21583984 38.94779297 22.59765625 38.89453125 C26.0748805 38.87919628 29.55206286 38.86475396 33.02929688 38.85351562 C38.54427792 38.83560665 44.05910904 38.81445721 49.57397461 38.77368164 C54.02194801 38.74100153 58.46976054 38.72312875 62.91784477 38.71536827 C64.61185677 38.70984026 66.30586032 38.69904541 67.99980354 38.68280983 C70.37904775 38.66092017 72.75763362 38.65803783 75.13696289 38.65942383 C75.83180283 38.648638 76.52664276 38.63785217 77.24253845 38.6267395 C82.26472916 38.65823925 85.60636385 39.7457759 90 42 C93.66390992 45.90817058 94.12740381 49.50627351 94.17700195 54.72143555 C94.19625481 56.48423103 94.19625481 56.48423103 94.21589661 58.28263855 C94.22328354 59.55448502 94.23067047 60.82633148 94.23828125 62.13671875 C94.246353 63.44526321 94.25442474 64.75380768 94.26274109 66.102005 C94.27775793 68.8752123 94.28759956 71.64839409 94.29516602 74.42163086 C94.30620169 77.95780636 94.34057184 81.4933476 94.38033772 85.02929974 C94.4129266 88.41924615 94.41729364 91.80912787 94.42578125 95.19921875 C94.44328934 96.46094406 94.46079742 97.72266937 94.47883606 99.02262878 C94.46139361 106.12320482 93.99961426 111.0340339 90 117 C87.25 118 87.25 118 85 118 C85.16134933 117.46478729 85.32269867 116.92957458 85.48893738 116.37814331 C86.10276899 113.52178194 86.15022257 110.87253623 86.17700195 107.94970703 C86.18983719 106.72808868 86.20267242 105.50647034 86.21589661 104.24783325 C86.22328354 102.9311264 86.23067047 101.61441956 86.23828125 100.2578125 C86.24235678 99.58495083 86.2464323 98.91208916 86.25063133 98.21883774 C86.27144903 94.65875307 86.28577044 91.09870648 86.29516602 87.53857422 C86.30623469 83.87108546 86.34065115 80.20420269 86.38033772 76.53692818 C86.40653431 73.70753891 86.41486037 70.87829365 86.41844749 68.04879379 C86.42565675 66.0424611 86.45207803 64.03622702 86.47883606 62.03005981 C86.59400964 53.14961942 86.59400964 53.14961942 82 46 C78.35907825 43.54655102 74.62627044 43.69396442 70.38574219 43.68115234 C69.24369827 43.66608391 69.24369827 43.66608391 68.07858276 43.65071106 C65.56802102 43.61987938 63.05756592 43.6028441 60.546875 43.5859375 C58.80380333 43.56722583 57.06074071 43.54765241 55.31768799 43.5272522 C50.73434794 43.47592488 46.15097852 43.43630237 41.56750488 43.39910889 C36.06576857 43.35203151 30.56417805 43.29043108 25.06256104 43.23126221 C16.70843285 43.14304261 8.35433272 43.07328362 0 43 C0 28.81 0 14.62 0 0 Z " fill="#A5EAA8" transform="translate(245,179)"/>
<path d="M0 0 C0.6836261 -0.00014603 1.3672522 -0.00029205 2.07159424 -0.0004425 C4.31159739 0.00024931 6.55151543 0.00800717 8.79150391 0.01586914 C10.35234532 0.01773592 11.91318733 0.0191586 13.47402954 0.02015686 C17.56750121 0.02396156 21.66093698 0.03377423 25.75439453 0.04486084 C29.9373323 0.05511911 34.12027591 0.05966392 38.30322266 0.06469727 C46.49985365 0.07539845 54.69645555 0.09245011 62.89306641 0.11352539 C62.89306641 0.44352539 62.89306641 0.77352539 62.89306641 1.11352539 C40.12306641 1.11352539 17.35306641 1.11352539 -6.10693359 1.11352539 C-6.06052734 6.86790039 -6.01412109 12.62227539 -5.96630859 18.55102539 C-5.94585995 22.20599145 -5.92660348 25.86088655 -5.91162109 29.51586914 C-5.88774984 35.31175463 -5.85957125 41.1073863 -5.80517578 46.90307617 C-5.76157601 51.57800063 -5.73776663 56.25265273 -5.72742462 60.92776489 C-5.72005855 62.70749191 -5.70567437 64.48720475 -5.68401337 66.26681519 C-5.65479081 68.76812445 -5.65098534 71.26832171 -5.65283203 73.76977539 C-5.63845093 74.498423 -5.62406982 75.22707062 -5.60925293 75.97779846 C-5.65185914 81.34395659 -7.01548022 85.68037198 -10.10693359 90.11352539 C-11.59193359 91.10352539 -11.59193359 91.10352539 -13.10693359 92.11352539 C-14.09693359 91.78352539 -15.08693359 91.45352539 -16.10693359 91.11352539 C-15.78350983 90.62571594 -15.46008606 90.13790649 -15.12686157 89.63531494 C-13.67887594 86.05514544 -13.79849146 82.56923948 -13.78808594 78.76489258 C-13.77804031 77.9255014 -13.76799469 77.08611023 -13.75764465 76.22128296 C-13.72679129 73.45099564 -13.70977153 70.68080506 -13.69287109 67.91040039 C-13.67416118 65.98796759 -13.6545879 64.06554302 -13.63418579 62.14312744 C-13.58283996 57.08631234 -13.5432273 52.0294706 -13.50604248 46.97253418 C-13.46601825 41.81113076 -13.41491868 36.64983837 -13.36474609 31.48852539 C-13.26795775 21.36360335 -13.18356221 11.23861866 -13.10693359 1.11352539 C-8.68058996 0.25987831 -4.50500061 -0.00813177 0 0 Z " fill="#9AE39C" transform="translate(258.10693359375,301.886474609375)"/>
<path d="M0 0 C3 1 3 1 4.16835022 2.66615295 C5.23167758 5.65015352 5.27657286 8.17201969 5.30639648 11.34155273 C5.32238388 12.62646103 5.33837128 13.91136932 5.35484314 15.23521423 C5.36121936 16.63467003 5.36661226 18.0341306 5.37109375 19.43359375 C5.38006402 20.87321566 5.38918594 22.31283663 5.39845276 23.75245667 C5.41492609 26.7676927 5.42264003 29.7828179 5.42553711 32.7980957 C5.4309247 36.65642691 5.46862532 40.51371301 5.51428127 44.37174892 C5.544062 47.34438357 5.55126083 50.31676658 5.55226326 53.28953743 C5.5564623 54.711699 5.56888423 56.13386154 5.58978081 57.55587578 C5.61671277 59.54675517 5.60875998 61.53801335 5.59936523 63.52905273 C5.60443588 64.66060287 5.60950653 65.79215302 5.61473083 66.95799255 C4.77566787 71.11011191 3.2737049 72.32634801 0 75 C-0.96641922 75.8012787 -0.96641922 75.8012787 -1.95236206 76.61874485 C-7.88484623 81.10723012 -12.52909 81.8441344 -19.84399414 81.68115234 C-21.41141357 81.68246658 -21.41141357 81.68246658 -23.01049805 81.68380737 C-26.43616647 81.67965461 -29.85983341 81.63310925 -33.28515625 81.5859375 C-35.67124868 81.57473722 -38.05735498 81.56620097 -40.44346619 81.56021118 C-46.70240847 81.5373789 -52.96050606 81.47850239 -59.21911621 81.4119873 C-65.61406022 81.35044473 -72.00914164 81.32317052 -78.40429688 81.29296875 C-90.93655683 81.22875504 -103.46823334 81.12760703 -116 81 C-115.505 80.01 -115.505 80.01 -115 79 C-80.02 79 -45.04 79 -9 79 C-9 78.34 -9 77.68 -9 77 C-8.01 77 -7.02 77 -6 77 C-6 76.34 -6 75.68 -6 75 C-5.34 75 -4.68 75 -4 75 C-4 74.34 -4 73.68 -4 73 C-3.34 73 -2.68 73 -2 73 C-1.10332523 65.23023858 -0.8887348 57.50105709 -0.7890625 49.6875 C-0.7747821 48.66495117 -0.76050171 47.64240234 -0.74578857 46.58886719 C-0.68780181 42.3003351 -0.63314254 38.01193711 -0.59863281 33.72314453 C-0.57111801 30.56510958 -0.52531568 27.40776879 -0.4765625 24.25 C-0.47330963 23.28022217 -0.47005676 22.31044434 -0.46670532 21.3112793 C-0.44185562 19.95836792 -0.44185562 19.95836792 -0.41650391 18.578125 C-0.40841705 17.78825195 -0.4003302 16.99837891 -0.39199829 16.18457031 C0.09214373 13.48649147 1.34617708 12.14425451 3 10 C2.77802187 7.3015411 2.77802187 7.3015411 2 5 C1.34 5 0.68 5 0 5 C0 3.35 0 1.7 0 0 Z " fill="#BDF2BF" transform="translate(367,98)"/>
<path d="M0 0 C1.65 0 3.3 0 5 0 C4.67 0.99 4.34 1.98 4 3 C3.91708047 4.9920303 3.89261823 6.98673713 3.90234375 8.98046875 C3.90556641 10.14384766 3.90878906 11.30722656 3.91210938 12.50585938 C3.92048828 13.72080078 3.92886719 14.93574219 3.9375 16.1875 C3.94201172 17.41404297 3.94652344 18.64058594 3.95117188 19.90429688 C3.96296935 22.93624668 3.97943079 25.96809906 4 29 C3.34 29 2.68 29 2 29 C2 30.98 2 32.96 2 35 C2.66 35 3.32 35 4 35 C4 35.66 4 36.32 4 37 C3.01 37 2.02 37 1 37 C1 38.65 1 40.3 1 42 C2.16724106 41.84021667 3.33448212 41.68043335 4.53709412 41.51580811 C8.49980428 41.02233427 12.41141296 40.82629229 16.40649414 40.74707031 C17.44476601 40.7249926 17.44476601 40.7249926 18.50401306 40.70246887 C20.76433011 40.65605621 23.02468731 40.61638475 25.28515625 40.578125 C26.0634271 40.56426506 26.84169796 40.55040512 27.64355278 40.53612518 C31.75587018 40.46323777 35.86823518 40.39568888 39.98071289 40.33251953 C44.21303617 40.2664388 48.44477695 40.18178757 52.67667484 40.0929451 C55.94773293 40.02768451 59.21890582 39.97629354 62.49026299 39.92861176 C64.05037053 39.90347237 65.61040407 39.87315944 67.17030525 39.83744049 C69.354556 39.78871166 71.53826021 39.75974484 73.72290039 39.73535156 C75.58199791 39.70323578 75.58199791 39.70323578 77.47865295 39.67047119 C81.61441706 40.05749735 84.28754299 41.19147728 88 43 C87.01 43.495 87.01 43.495 86 44 C86.33 44.99 86.66 45.98 87 47 C87.66 47.33 88.32 47.66 89 48 C90.01576265 51.04728796 89.97454627 53.18690352 89.53930664 56.3828125 C88.76904495 62.17487752 88.76753514 67.97732153 88.68359375 73.8125 C88.6524221 75.62669434 88.6524221 75.62669434 88.62062073 77.47753906 C88.55554957 81.3183049 88.49643848 85.15913564 88.4375 89 C88.39427439 91.6132878 88.35065884 94.22656918 88.30664062 96.83984375 C88.19991196 103.22649509 88.09806888 109.61321013 88 116 C87.01 116.495 87.01 116.495 86 117 C86.01332367 115.79849808 86.01332367 115.79849808 86.0269165 114.57272339 C86.10718648 107.01052825 86.16802699 99.44854074 86.20724869 91.8860302 C86.2280912 87.99837897 86.25634681 84.11108085 86.30175781 80.22363281 C86.34533619 76.46941805 86.36916219 72.71554214 86.37950897 68.9610939 C86.38687898 67.53138014 86.40127114 66.10168417 86.42292023 64.67211533 C86.4521076 62.66424519 86.4536352 60.65603143 86.45410156 58.64794922 C86.46742523 56.9358577 86.46742523 56.9358577 86.48101807 55.18917847 C85.79444827 50.63717977 83.90404231 47.45431573 80.22589111 44.64492798 C76.96166722 43.69915426 73.75570784 43.69133415 70.38574219 43.68115234 C69.24369827 43.66608391 69.24369827 43.66608391 68.07858276 43.65071106 C65.56802102 43.61987938 63.05756592 43.6028441 60.546875 43.5859375 C58.80380333 43.56722583 57.06074071 43.54765241 55.31768799 43.5272522 C50.73434794 43.47592488 46.15097852 43.43630237 41.56750488 43.39910889 C36.06576857 43.35203151 30.56417805 43.29043108 25.06256104 43.23126221 C16.70843285 43.14304261 8.35433272 43.07328362 0 43 C0 28.81 0 14.62 0 0 Z " fill="#B2E5B7" transform="translate(245,179)"/>
<path d="M0 0 C0.79053904 -0.00226556 1.58107808 -0.00453111 2.39557284 -0.00686532 C5.05325529 -0.01321203 7.71088684 -0.01237552 10.36857605 -0.0115509 C12.27058987 -0.014542 14.17260307 -0.01794442 16.07461548 -0.02172852 C21.24823266 -0.03057839 26.4218333 -0.03290706 31.59545732 -0.0335443 C35.91205924 -0.03449284 40.2286573 -0.03817057 44.54525775 -0.0417164 C54.72920438 -0.04986495 64.91314216 -0.05230029 75.09709167 -0.05158997 C85.60631316 -0.05098927 96.1154833 -0.06153854 106.62469178 -0.07733363 C115.64303289 -0.09040556 124.6613572 -0.095774 133.67970771 -0.09513456 C139.06779927 -0.09487944 144.45584524 -0.09773818 149.84392738 -0.10831261 C154.91230529 -0.11798755 159.98059395 -0.11807688 165.04897499 -0.11079597 C166.9089623 -0.10974934 168.76895515 -0.1121177 170.62893295 -0.11815643 C173.16882414 -0.12586824 175.70840653 -0.1212369 178.24829102 -0.11352539 C178.98361158 -0.11866895 179.71893214 -0.12381252 180.47653514 -0.12911195 C184.79491492 -0.10015718 188.2983425 0.54939863 192.31462097 2.13371277 C191.32462097 2.79371277 190.33462097 3.45371277 189.31462097 4.13371277 C189.31462097 3.47371277 189.31462097 2.81371277 189.31462097 2.13371277 C163.51586926 2.24080145 137.71714762 2.3535354 111.91845036 2.47305202 C99.94057265 2.52840881 87.96269197 2.58189477 75.98478699 2.63102722 C65.54891741 2.67383905 55.11306999 2.72010934 44.67723459 2.77059132 C39.14787801 2.79721651 33.61852589 2.8220701 28.08914375 2.84278679 C22.8911407 2.86231644 17.69317991 2.88644899 12.49521446 2.91420364 C10.58153676 2.92359361 8.66784976 2.93126183 6.75415802 2.93713188 C4.15329888 2.94536016 1.55254323 2.95962728 -1.04827881 2.97549438 C-1.81577373 2.97647249 -2.58326865 2.9774506 -3.37402099 2.97845834 C-6.81965997 2.69634692 -6.81965997 2.69634692 -9.68537903 4.13371277 C-11.35155018 4.17435109 -13.01925998 4.17643377 -14.68537903 4.13371277 C-9.85018119 0.29890069 -6.01091551 -0.01254495 0 0 Z " fill="#83E787" transform="translate(174.6853790283203,94.86628723144531)"/>
<path d="M0 0 C0.99 0.33 1.98 0.66 3 1 C2.67 1.66 2.34 2.32 2 3 C0 3.66666667 -2 4.33333333 -4 5 C-4.33 5.66 -4.66 6.32 -5 7 C-5.66 7 -6.32 7 -7 7 C-7 7.66 -7 8.32 -7 9 C-12.72771273 9.98340272 -18.26182821 10.13622651 -24.06616211 10.11352539 C-25.05229492 10.11367142 -26.03842773 10.11381744 -27.05444336 10.1139679 C-30.29543298 10.1132744 -33.53636424 10.10550845 -36.77734375 10.09765625 C-39.03178374 10.09579007 -41.28622413 10.09436711 -43.54066467 10.09336853 C-49.46059295 10.08955912 -55.3804965 10.07974232 -61.30041504 10.06866455 C-67.34675767 10.05841651 -73.39310431 10.05386365 -79.43945312 10.04882812 C-91.29298133 10.0381186 -103.14648474 10.02053459 -115 10 C-115 21.88 -115 33.76 -115 46 C-88.93 46 -62.86 46 -36 46 C-35.67 46.99 -35.34 47.98 -35 49 C-35.66750778 48.83923477 -36.33501556 48.67846954 -37.02275085 48.51283264 C-40.57181038 47.90150538 -44.04637071 47.82410651 -47.63598633 47.79467773 C-48.38774139 47.78477814 -49.13949646 47.77487854 -49.91403198 47.76467896 C-52.38666691 47.73321568 -54.85932101 47.70836686 -57.33203125 47.68359375 C-59.05124904 47.6630111 -60.77046191 47.64201429 -62.4896698 47.62062073 C-67.00560518 47.5655354 -71.52158521 47.51606663 -76.03759766 47.46777344 C-81.46089287 47.40860675 -86.88410683 47.34245354 -92.3073349 47.27747345 C-100.53817347 47.17963436 -108.76906515 47.09066181 -117 47 C-117 34.13 -117 21.26 -117 8 C-113.81102051 8.00636475 -110.62204102 8.01272949 -107.33642578 8.01928711 C-96.77912095 8.03525668 -86.22214751 8.01276367 -75.6649189 7.97153378 C-69.26635755 7.94771892 -62.86831631 7.93670595 -56.46972656 7.95532227 C-50.29021809 7.97282398 -44.1116423 7.95621093 -37.93224716 7.91632271 C-35.57926922 7.90705583 -33.22621014 7.90991127 -30.87326431 7.92530632 C-15.02079641 8.65215197 -15.02079641 8.65215197 -1.6232605 1.40187073 C-1.08758453 0.93925339 -0.55190857 0.47663605 0 0 Z " fill="#1DAD21" transform="translate(368,171)"/>
<path d="M0 0 C60.06 0 120.12 0 182 0 C182 0.66 182 1.32 182 2 C183.65 2 185.3 2 187 2 C187 2.33 187 2.66 187 3 C125.29 3 63.58 3 0 3 C0 2.01 0 1.02 0 0 Z " fill="#0FAF17" transform="translate(172,92)"/>
<path d="M0 0 C-2.68739872 0.79201177 -5.37491563 1.58361866 -8.0625 2.375 C-9.19075195 2.70757812 -9.19075195 2.70757812 -10.34179688 3.046875 C-11.84626281 3.48974809 -13.35106535 3.93147926 -14.85620117 4.37207031 C-16.77750573 4.93483029 -18.69743928 5.50226605 -20.6171875 6.0703125 C-24.08262081 7.02270641 -27.5387431 7.79448175 -31.0625 8.5 C-32.22910156 8.7371875 -33.39570313 8.974375 -34.59765625 9.21875 C-36.06455367 9.48224986 -37.53207749 9.74227198 -39 10 C-39.90854736 10.17499023 -40.81709473 10.34998047 -41.75317383 10.53027344 C-52.56538174 12.37688235 -63.33637604 12.30330354 -74.27709961 12.26074219 C-77.55926945 12.25001056 -80.84089348 12.26069413 -84.12304688 12.2734375 C-94.62252741 12.28095188 -104.68676513 12.11739109 -115 10 C-116.86025597 9.67595853 -118.72092816 9.3542964 -120.58203125 9.03515625 C-122.32595139 8.71326143 -124.0694504 8.38907588 -125.8125 8.0625 C-126.68841797 7.90587891 -127.56433594 7.74925781 -128.46679688 7.58789062 C-133.92736494 6.56428899 -138.85351937 5.09804262 -144 3 C-144 2.67 -144 2.34 -144 2 C-142.62422639 2.11617644 -141.24938955 2.24345777 -139.875 2.375 C-139.10929688 2.44460938 -138.34359375 2.51421875 -137.5546875 2.5859375 C-135 3 -135 3 -132.1171875 4.00390625 C-128.74467742 5.08158804 -125.77879751 5.37142456 -122.25 5.5625 C-116.19794344 5.90102828 -116.19794344 5.90102828 -114 7 C-107.31118537 8.02959889 -100.58134182 8.14852274 -93.828125 8.1328125 C-92.90207458 8.13376923 -91.97602417 8.13472595 -91.02191162 8.13571167 C-89.08247814 8.1363868 -87.14304231 8.1345795 -85.20361328 8.13037109 C-82.2437636 8.12498866 -79.28406395 8.13035138 -76.32421875 8.13671875 C-74.42968717 8.13605833 -72.53515568 8.13477791 -70.640625 8.1328125 C-69.76239075 8.13483673 -68.88415649 8.13686096 -67.97930908 8.13894653 C-63.52680425 8.12199936 -59.39110408 7.82170085 -55 7 C-53.08136603 6.99797612 -51.16261149 6.99785029 -49.24414062 7.02294922 C-44.89421596 6.97846565 -40.57590197 6.49143965 -36.25 6.0625 C-35.31800781 5.97548828 -34.38601563 5.88847656 -33.42578125 5.79882812 C-27.61357421 5.3843074 -27.61357421 5.3843074 -22 4 C-21.67 3.01 -21.34 2.02 -21 1 C-19.865625 1.020625 -18.73125 1.04125 -17.5625 1.0625 C-14.18424326 1.41577477 -14.18424326 1.41577477 -13 0 C-11.57109694 -0.26085451 -10.13057853 -0.45967185 -8.6875 -0.625 C-7.51767578 -0.76808594 -7.51767578 -0.76808594 -6.32421875 -0.9140625 C-3.97925174 -1.00076716 -2.24705183 -0.61226764 0 0 Z " fill="#30B133" transform="translate(327,483)"/>
<path d="M0 0 C0.66 0.33 1.32 0.66 2 1 C1.236875 1.7425 0.47375 2.485 -0.3125 3.25 C-5.21787897 8.1824897 -5.21787897 8.1824897 -6.3719368 14.78138161 C-6.37852664 15.74604619 -6.38511649 16.71071077 -6.39190602 17.70460761 C-6.38384962 18.76160278 -6.37579321 19.81859796 -6.36749268 20.90762329 C-6.37076152 22.03260676 -6.37403036 23.15759022 -6.37739825 24.3166641 C-6.38470242 28.10007968 -6.37049903 31.88311175 -6.35644531 35.66650391 C-6.35557286 38.37317832 -6.35920762 41.07984236 -6.36264038 43.78651428 C-6.36827682 50.3827464 -6.35795359 56.97886237 -6.34235242 63.57507469 C-6.32482894 71.25182668 -6.32339351 78.92855603 -6.32273683 86.60532491 C-6.32104836 100.29843184 -6.30522748 113.9914858 -6.28125 127.68457031 C-6.25798253 140.98177531 -6.24382406 154.27894669 -6.24023438 167.57617188 C-6.24001161 168.39541396 -6.23978884 169.21465604 -6.23955932 170.05872364 C-6.23911673 171.70902449 -6.23867471 173.35932533 -6.23823325 175.00962617 C-6.23801369 175.82364278 -6.23779412 176.63765938 -6.2375679 177.47634315 C-6.23735192 178.28826163 -6.23713593 179.1001801 -6.2369134 179.93670217 C-6.23321542 192.59612009 -6.22185633 205.25553258 -6.2094375 217.91494454 C-6.20499806 222.50846583 -6.20156153 227.10198661 -6.19881538 231.69550921 C-6.19438858 238.97959793 -6.18663492 246.26366658 -6.17204097 253.54774262 C-6.16542133 256.87756452 -6.16089074 260.20735301 -6.15958023 263.53718376 C-6.15784344 267.14026371 -6.14998419 270.74327753 -6.14044189 274.34634399 C-6.14130838 275.40780061 -6.14217486 276.46925723 -6.1430676 277.5628792 C-6.13922645 278.52232829 -6.13538531 279.48177737 -6.13142776 280.47030067 C-6.13018127 281.30275767 -6.12893477 282.13521466 -6.1276505 282.99289763 C-6.12624853 285.07212089 -6.12624853 285.07212089 -5 287 C-4.95977609 289.3329866 -4.95679753 291.66706666 -5 294 C-7.63292142 290.97545744 -8.37523078 289.13168389 -8.37752342 285.13608742 C-8.38925829 283.66144018 -8.38925829 283.66144018 -8.40123022 282.15700209 C-8.39453805 281.0793897 -8.38784589 280.00177732 -8.38095093 278.89151001 C-8.3856309 277.74484749 -8.39031087 276.59818497 -8.39513266 275.41677511 C-8.4050388 272.23343706 -8.40145934 269.05044128 -8.39217401 265.86711168 C-8.38539547 262.4341603 -8.39585889 259.00125573 -8.40411377 255.5683136 C-8.41746697 248.84241389 -8.41456609 242.11661451 -8.40587585 235.39071085 C-8.39910481 229.92412492 -8.39818007 224.45756715 -8.4014473 218.99097824 C-8.401907 218.21337603 -8.40236669 217.43577382 -8.40284032 216.6346079 C-8.40379949 215.05497142 -8.40477213 213.47533494 -8.4057581 211.89569847 C-8.41431693 197.07602731 -8.40447073 182.25641178 -8.388357 167.43674974 C-8.37495864 154.72082611 -8.37727696 142.00498465 -8.39111328 129.2890625 C-8.4071695 114.52606458 -8.41348734 99.76311547 -8.40427649 85.00011003 C-8.40332084 83.42562446 -8.40237773 81.85113888 -8.4014473 80.27665329 C-8.40098447 79.50196253 -8.40052164 78.72727177 -8.40004479 77.92910553 C-8.39745463 72.47011631 -8.40182657 67.01115804 -8.40888596 61.55217361 C-8.41730186 54.89782435 -8.41501918 48.24358125 -8.39904372 41.58924414 C-8.39116135 38.19406687 -8.38806862 34.79906656 -8.39799118 31.40389061 C-8.40616693 27.72323531 -8.39593221 24.04308053 -8.38095093 20.36245728 C-8.38764309 19.28930633 -8.39433526 18.21615539 -8.40123022 17.11048472 C-8.35821319 11.67612426 -8.15509937 7.64862078 -5 3 C-2.4375 1.0625 -2.4375 1.0625 0 0 Z " fill="#DCFEDF" transform="translate(158,100)"/>
<path d="M0 0 C-0.928125 0.37125 -1.85625 0.7425 -2.8125 1.125 C-6.77603387 3.45649051 -7.41452907 4.69666082 -9 9 C-9.42615398 12.78960557 -9.39609615 16.5523395 -9.36749268 20.36245728 C-9.37076152 21.51223977 -9.37403036 22.66202227 -9.37739825 23.84664667 C-9.38341372 27.02934102 -9.37599746 30.21167521 -9.36285591 33.39433765 C-9.35194344 36.82992963 -9.35837315 40.26549502 -9.36264038 43.70109558 C-9.3682706 50.42739926 -9.35796534 57.15358882 -9.34235242 63.87987305 C-9.3248094 71.71151951 -9.32339309 79.54314388 -9.32273683 87.37480693 C-9.32104917 101.3462501 -9.30523824 115.31764131 -9.28125 129.2890625 C-9.25798352 142.84993928 -9.24382396 156.41078311 -9.24023438 169.97167969 C-9.24001161 170.80718749 -9.23978884 171.64269529 -9.23955932 172.50352152 C-9.23911673 174.18664447 -9.2386747 175.86976743 -9.23823325 177.55289038 C-9.23801369 178.38313929 -9.23779412 179.21338819 -9.2375679 180.06879616 C-9.23735192 180.89693387 -9.23713593 181.72507159 -9.2369134 182.57830439 C-9.2332135 195.49807031 -9.22185455 208.41783092 -9.2094375 221.337591 C-9.20500153 226.02196402 -9.20156356 230.70633655 -9.19881538 235.39071085 C-9.19438459 242.81941292 -9.18661672 250.24809534 -9.17204097 257.67678501 C-9.16543112 261.07167247 -9.16036759 264.4665426 -9.15958023 267.86143684 C-9.15783921 271.53815369 -9.14996862 275.2148063 -9.14044189 278.89151001 C-9.14130838 279.9691224 -9.14217486 281.04673478 -9.1430676 282.15700209 C-9.13730588 283.63164933 -9.13730588 283.63164933 -9.13142776 285.13608742 C-9.13018127 285.9849274 -9.12893477 286.83376739 -9.1276505 287.7083298 C-9.00374765 289.9327196 -8.61901379 291.8652274 -8 294 C-10.0500163 292.33450574 -10.92290786 291.45122019 -11.37489682 288.80572951 C-11.37484181 287.94381668 -11.37478679 287.08190385 -11.37473011 286.19387245 C-11.38193665 285.19821506 -11.3891432 284.20255767 -11.39656812 283.17672884 C-11.38919383 282.0799577 -11.38181955 280.98318656 -11.3742218 279.85317993 C-11.37819621 278.69033206 -11.38217061 277.5274842 -11.38626546 276.32939851 C-11.39424254 273.09626006 -11.38870695 269.86346511 -11.37751496 266.6303463 C-11.3686906 263.14559588 -11.37711141 259.6608822 -11.38337708 256.1761322 C-11.39287806 249.34681876 -11.38625357 242.51761079 -11.37411413 235.68830515 C-11.36050785 227.73817029 -11.36213083 219.78806068 -11.36424746 211.83791713 C-11.36743936 197.65299078 -11.355759 183.4681146 -11.33618164 169.28320312 C-11.31718383 155.51463289 -11.31009197 141.74612147 -11.31567383 127.97753906 C-11.32173081 112.99262459 -11.32155549 98.00773601 -11.310188 83.02282369 C-11.30898069 81.42502999 -11.3077747 79.8272363 -11.30657005 78.2294426 C-11.30596651 77.44325969 -11.30536298 76.65707679 -11.30474115 75.84707016 C-11.30086022 70.30397464 -11.30125633 64.76088874 -11.3031559 59.21779251 C-11.30527747 52.46203192 -11.30005687 45.70632287 -11.28554235 38.9505768 C-11.27829528 35.50290996 -11.27422395 32.05531823 -11.27878571 28.60764503 C-11.28199647 24.87194206 -11.2729532 21.1364669 -11.26069641 17.40078735 C-11.26447573 16.30847766 -11.26825506 15.21616796 -11.27214891 14.09075797 C-11.26631671 13.08988508 -11.26048452 12.0890122 -11.25447559 11.05780983 C-11.25360882 10.1955723 -11.25274204 9.33333476 -11.251849 8.44496882 C-10.96220738 5.63310647 -10.26051097 3.52631853 -9 1 C-5.68814438 -0.9173901 -3.60113353 -1.33375316 0 0 Z " fill="#1FA626" transform="translate(160,100)"/>
<path d="M0 0 C1.02185394 -0.00599213 2.04370789 -0.01198425 3.0965271 -0.01815796 C16.54260576 -0.07058221 29.35324844 0.89371852 42.5625 3.4375 C42.5625 3.7675 42.5625 4.0975 42.5625 4.4375 C39.37501971 4.46682572 36.18757472 4.48440739 33 4.5 C31.65711914 4.51256836 31.65711914 4.51256836 30.28710938 4.52539062 C25.26252057 4.54379571 20.51432709 4.30016398 15.5625 3.4375 C15.5625 2.7775 15.5625 2.1175 15.5625 1.4375 C-5.87605277 1.70707934 -5.87605277 1.70707934 -27.1875 3.8125 C-28.39841309 3.9832605 -28.39841309 3.9832605 -29.63378906 4.1574707 C-32.70602859 4.66265796 -34.9845646 5.07760947 -37.453125 7.0390625 C-37.77796875 7.50054688 -38.1028125 7.96203125 -38.4375 8.4375 C-39.0975 8.1075 -39.7575 7.7775 -40.4375 7.4375 C-40.7675 7.4375 -41.0975 7.4375 -41.4375 7.4375 C-42.19417969 7.41429687 -42.95085937 7.39109375 -43.73046875 7.3671875 C-49.14841053 7.26482423 -53.31444613 7.5312474 -58.4375 9.4375 C-61.8125 9.5625 -61.8125 9.5625 -64.4375 9.4375 C-47.48641748 -1.86322168 -19.49853549 0.03793598 0 0 Z " fill="#55BC5A" transform="translate(250.4375,4.5625)"/>
<path d="M0 0 C2.8969614 2.64505172 3.91892235 4.57603428 4.14717102 8.58476257 C4.15701523 9.61986465 4.16685944 10.65496674 4.17700195 11.72143555 C4.18983719 12.89663254 4.20267242 14.07182953 4.21589661 15.28263855 C4.22697701 17.19040825 4.22697701 17.19040825 4.23828125 19.13671875 C4.246353 20.44526321 4.25442474 21.75380768 4.26274109 23.102005 C4.27775793 25.8752123 4.28759956 28.64839409 4.29516602 31.42163086 C4.30620169 34.95780636 4.34057184 38.4933476 4.38033772 42.02929974 C4.4129266 45.41924615 4.41729364 48.80912787 4.42578125 52.19921875 C4.44328934 53.46094406 4.46079742 54.72266937 4.47883606 56.02262878 C4.46139361 63.12320482 3.99961426 68.0340339 0 74 C-2.75 75 -2.75 75 -5 75 C-3.625 72.5 -3.625 72.5 -2 70 C-1.34 70 -0.68 70 0 70 C1.0758192 66.7725424 1.12689352 64.44143046 1.12939453 61.04736328 C1.13412277 59.20998093 1.13412277 59.20998093 1.13894653 57.33547974 C1.13715623 55.99709029 1.13510515 54.65870118 1.1328125 53.3203125 C1.1334863 51.94652286 1.13445696 50.57273333 1.13571167 49.19894409 C1.13718606 46.31897853 1.13504305 43.43904399 1.13037109 40.55908203 C1.12468469 36.8748991 1.12794752 33.19078919 1.13394356 29.50660896 C1.13756531 26.66868545 1.13640298 23.83077911 1.13381577 20.99285507 C1.13315041 19.6349372 1.13396122 18.27701775 1.13629532 16.91910172 C1.13884711 15.01654339 1.13426541 13.11397958 1.12939453 11.21142578 C1.12859894 10.13015411 1.12780334 9.04888245 1.12698364 7.93484497 C1.00777519 5.17970014 0.62454271 2.681167 0 0 Z " fill="#93F097" transform="translate(335,222)"/>
<path d="M0 0 C0.33 0 0.66 0 1 0 C1.02685412 2.31243792 1.04632841 4.6249627 1.0625 6.9375 C1.07410156 8.22527344 1.08570313 9.51304687 1.09765625 10.83984375 C1 14 1 14 0 15 C-0.09381302 16.84118029 -0.11743954 18.68597641 -0.11352539 20.52954102 C-0.11344986 21.71068985 -0.11337433 22.89183868 -0.11329651 24.10877991 C-0.10813522 25.3941716 -0.10297394 26.67956329 -0.09765625 28.00390625 C-0.0962413 29.31205795 -0.09482635 30.62020966 -0.09336853 31.96800232 C-0.0895441 35.45162859 -0.07971446 38.93521339 -0.06866455 42.41882324 C-0.05844882 45.97126708 -0.05387056 49.52371759 -0.04882812 53.07617188 C-0.03809212 60.05079832 -0.0210166 67.02539717 0 74 C-0.33 74 -0.66 74 -1 74 C-4.8059407 49.53323836 -3.95960422 24.37543593 0 0 Z " fill="#1E9F22" transform="translate(8,210)"/>
<path d="M0 0 C0.99 0.495 0.99 0.495 2 1 C-1.7175442 4.91849254 -3.66860316 6.89785955 -9.2056427 7.14044189 C-10.5443667 7.15248152 -11.88314744 7.15896528 -13.22192383 7.16113281 C-13.95399551 7.16609772 -14.6860672 7.17106262 -15.44032288 7.17617798 C-17.86256857 7.19078433 -20.28474875 7.19759935 -22.70703125 7.203125 C-24.39230857 7.2088781 -26.07758587 7.21463581 -27.76286316 7.22039795 C-31.29772242 7.23090386 -34.83255896 7.23674908 -38.36743164 7.24023438 C-42.89013301 7.24571558 -47.41253279 7.26973722 -51.93513966 7.29820633 C-55.4173418 7.31685942 -58.89947171 7.32203975 -62.38171959 7.32357025 C-64.04863825 7.32659173 -65.71555579 7.3346032 -67.38242531 7.34775543 C-69.71847889 7.36487071 -72.05380119 7.36292253 -74.38989258 7.35644531 C-75.41644958 7.37026749 -75.41644958 7.37026749 -76.46374512 7.3843689 C-81.01934694 7.34493572 -84.08537169 6.29155669 -88 4 C-88 3.34 -88 2.68 -88 2 C-87.01 2 -86.02 2 -85 2 C-84.67 2.66 -84.34 3.32 -84 4 C-80.46805909 5.17731364 -77.67445206 5.12710001 -73.94580078 5.12939453 C-73.23162994 5.13114685 -72.51745911 5.13289917 -71.78164673 5.13470459 C-69.41951063 5.13910754 -67.05744937 5.13618996 -64.6953125 5.1328125 C-63.05247992 5.13348614 -61.40964743 5.13445666 -59.76681519 5.13571167 C-56.32191012 5.13718666 -52.87703096 5.13504101 -49.43212891 5.13037109 C-45.02154023 5.1246829 -40.61101253 5.1279483 -36.2004261 5.13394356 C-32.80662581 5.13756218 -29.41283989 5.13640444 -26.01903915 5.13381577 C-24.39317696 5.13314963 -22.76731345 5.13396395 -21.14145279 5.13629532 C-18.86526296 5.13884218 -16.58917086 5.13495219 -14.31298828 5.12939453 C-13.0185379 5.12859894 -11.72408752 5.12780334 -10.39041138 5.12698364 C-7.45472292 5.01703108 -4.8478758 4.68573129 -2 4 C-2 3.34 -2 2.68 -2 2 C-1.34 2 -0.68 2 0 2 C0 1.34 0 0.68 0 0 Z " fill="#E0FEE1" transform="translate(241,392)"/>
<path d="M0 0 C0 0.33 0 0.66 0 1 C-0.59014893 1.07516846 -1.18029785 1.15033691 -1.78833008 1.2277832 C-4.46495426 1.57622104 -7.13855041 1.94412175 -9.8125 2.3125 C-10.74126953 2.43044922 -11.67003906 2.54839844 -12.62695312 2.66992188 C-13.51962891 2.79560547 -14.41230469 2.92128906 -15.33203125 3.05078125 C-16.15421143 3.16075439 -16.9763916 3.27072754 -17.82348633 3.3840332 C-20.32088668 4.09081291 -21.35179065 5.03473764 -23 7 C-23.66 6.67 -24.32 6.34 -25 6 C-25.33 6 -25.66 6 -26 6 C-26.75667969 5.97679687 -27.51335937 5.95359375 -28.29296875 5.9296875 C-33.71091053 5.82732423 -37.87694613 6.0937474 -43 8 C-46.375 8.125 -46.375 8.125 -49 8 C-36.34631376 -0.43579083 -14.76024044 -0.66979242 0 0 Z " fill="#36B339" transform="translate(235,6)"/>
<path d="M0 0 C3 1 3 1 4.16835022 2.66615295 C5.23167758 5.65015352 5.27657286 8.17201969 5.30639648 11.34155273 C5.32238388 12.62646103 5.33837128 13.91136932 5.35484314 15.23521423 C5.36121936 16.63467003 5.36661226 18.0341306 5.37109375 19.43359375 C5.38006402 20.87321566 5.38918594 22.31283663 5.39845276 23.75245667 C5.41492609 26.7676927 5.42264003 29.7828179 5.42553711 32.7980957 C5.4309247 36.65642691 5.46862532 40.51371301 5.51428127 44.37174892 C5.544062 47.34438357 5.55126083 50.31676658 5.55226326 53.28953743 C5.5564623 54.711699 5.56888423 56.13386154 5.58978081 57.55587578 C5.61671277 59.54675517 5.60875998 61.53801335 5.59936523 63.52905273 C5.60443588 64.66060287 5.60950653 65.79215302 5.61473083 66.95799255 C4.80428305 70.96850912 3.12937707 72.45158471 0 75 C-1.485 75.495 -1.485 75.495 -3 76 C-3 75.34 -3 74.68 -3 74 C-2.02353516 73.42209717 -1.04707031 72.84419434 -0.04101562 72.2487793 C2.37584811 70.29211619 2.94841411 69.26560836 3.55004883 66.1678772 C3.72864891 62.44415253 3.72826546 58.74459261 3.65625 55.01953125 C3.65013011 53.64142176 3.64638145 52.26329989 3.64489746 50.88517761 C3.63571253 48.0041024 3.60694317 45.12415205 3.5625 42.2434082 C3.50577544 38.5476398 3.4840595 34.8527529 3.4751358 31.15659046 C3.46683275 28.31441919 3.44720521 25.47242653 3.42338562 22.6303463 C3.4119817 21.26717239 3.40246378 19.90398138 3.39485168 18.54078102 C3.38113472 16.64011995 3.35207617 14.73958811 3.32226562 12.83911133 C3.30860962 11.75721024 3.29495361 10.67530914 3.28088379 9.56062317 C3.25218077 6.83498874 3.25218077 6.83498874 1 5 C0.67 5 0.34 5 0 5 C0 3.35 0 1.7 0 0 Z " fill="#9CF3A0" transform="translate(367,98)"/>
<path d="M0 0 C1.32 0.33 2.64 0.66 4 1 C-4.11138419 5.55886466 -12.30958281 9.72920269 -20.875 13.375 C-21.64626221 13.70822266 -22.41752441 14.04144531 -23.2121582 14.38476562 C-28.38625482 16.54327086 -33.49248161 17.96377061 -39 19 C-38.505 17.515 -38.505 17.515 -38 16 C-36.88625 15.87625 -36.88625 15.87625 -35.75 15.75 C-32.85769044 15.22495116 -32.85769044 15.22495116 -31.0625 12.875 C-30.381875 12.25625 -29.70125 11.6375 -29 11 C-25.75 11.25 -25.75 11.25 -23 12 C-23 11.34 -23 10.68 -23 10 C-22.05125 9.7525 -21.1025 9.505 -20.125 9.25 C-16.08796513 8.10358036 -12.25943202 6.54088211 -8.37890625 4.953125 C-5.62199038 3.84854787 -2.83171187 2.8942248 0 2 C0 1.34 0 0.68 0 0 Z " fill="#28A425" transform="translate(366,463)"/>
<path d="M0 0 C0.33 0 0.66 0 1 0 C1.46039174 22.79529367 -0.15142193 44.48655936 -4 67 C-4.33 67 -4.66 67 -5 67 C-5.02685938 64.85423363 -5.04633088 62.70837355 -5.0625 60.5625 C-5.07410156 59.36753906 -5.08570313 58.17257812 -5.09765625 56.94140625 C-5 54 -5 54 -4 53 C-3.62056383 50.29058862 -3.29100985 47.5941233 -3 44.875 C-2.83418501 43.37230161 -2.66752708 41.86969598 -2.5 40.3671875 C-2.4278125 39.69800293 -2.355625 39.02881836 -2.28125 38.33935547 C-2.05333232 36.44360264 -1.77808507 34.55358073 -1.48852539 32.66625977 C-1.01050589 29.07884406 -0.79609227 25.58867999 -0.68359375 21.97265625 C-0.64169922 20.68681641 -0.59980469 19.40097656 -0.55664062 18.07617188 C-0.516843 16.73828375 -0.47713049 15.40039309 -0.4375 14.0625 C-0.39423346 12.69725438 -0.35061679 11.33201982 -0.30664062 9.96679688 C-0.20098847 6.64462348 -0.09888605 3.32238054 0 0 Z " fill="#229E24" transform="translate(494,235)"/>
<path d="M0 0 C-2.68739872 0.79201177 -5.37491563 1.58361866 -8.0625 2.375 C-8.81466797 2.59671875 -9.56683594 2.8184375 -10.34179688 3.046875 C-12.56058577 3.70002498 -14.78012197 4.35056224 -17 5 C-18.85044922 5.54140625 -18.85044922 5.54140625 -20.73828125 6.09375 C-23.52727735 6.8686567 -26.28923144 7.55055171 -29.125 8.125 C-29.93195313 8.29257812 -30.73890625 8.46015625 -31.5703125 8.6328125 C-34.08363017 9.01263864 -36.46211011 9.06322146 -39 9 C-39 8.34 -39 7.68 -39 7 C-37.66195313 6.80083984 -37.66195313 6.80083984 -36.296875 6.59765625 C-35.12640625 6.42105469 -33.9559375 6.24445313 -32.75 6.0625 C-31.00976562 5.80146484 -31.00976562 5.80146484 -29.234375 5.53515625 C-27.63335937 5.27025391 -27.63335937 5.27025391 -26 5 C-24.83210938 4.81244141 -24.83210938 4.81244141 -23.640625 4.62109375 C-23.09921875 4.41613281 -22.5578125 4.21117187 -22 4 C-21.67 3.01 -21.34 2.02 -21 1 C-19.865625 1.020625 -18.73125 1.04125 -17.5625 1.0625 C-14.18424326 1.41577477 -14.18424326 1.41577477 -13 0 C-11.57109694 -0.26085451 -10.13057853 -0.45967185 -8.6875 -0.625 C-7.90761719 -0.72039062 -7.12773437 -0.81578125 -6.32421875 -0.9140625 C-3.97925174 -1.00076716 -2.24705183 -0.61226764 0 0 Z " fill="#3EB13C" transform="translate(327,483)"/>
<path d="M0 0 C0.66 0.33 1.32 0.66 2 1 C0.71937515 2.7074998 -0.61767557 4.37373596 -2 6 C-2.66 6 -3.32 6 -4 6 C-4.2371875 6.56203125 -4.474375 7.1240625 -4.71875 7.703125 C-6.28947697 10.51894042 -8.21471464 12.47955416 -10.5 14.75 C-11.2940625 15.54921875 -12.088125 16.3484375 -12.90625 17.171875 C-15 19 -15 19 -17 19 C-17.66 20.32 -18.32 21.64 -19 23 C-19.66 23 -20.32 23 -21 23 C-21 22.01 -21 21.02 -21 20 C-20.34 20 -19.68 20 -19 20 C-19 19.34 -19 18.68 -19 18 C-17.6875 16.375 -17.6875 16.375 -16 15 C-15.01 15 -14.02 15 -13 15 C-13.33 13.68 -13.66 12.36 -14 11 C-12.2984375 10.38125 -12.2984375 10.38125 -10.5625 9.75 C-6.90456616 8.43314602 -6.90456616 8.43314602 -6.0625 5.8125 C-6.041875 5.214375 -6.02125 4.61625 -6 4 C-5.01 4 -4.02 4 -3 4 C-3 3.34 -3 2.68 -3 2 C-2.01 2 -1.02 2 0 2 C0 1.34 0 0.68 0 0 Z " fill="#19A518" transform="translate(433,410)"/>
<path d="M0 0 C1.32 0.33 2.64 0.66 4 1 C-12.36893204 13 -12.36893204 13 -15 13 C-15 11.68 -15 10.36 -15 9 C-15.66 9 -16.32 9 -17 9 C-16.67 7.35 -16.34 5.7 -16 4 C-13.03824877 4.61277612 -11.61941217 5.25372522 -9 7 C-8.01 7 -7.02 7 -6 7 C-6 6.34 -6 5.68 -6 5 C-5.195625 4.731875 -4.39125 4.46375 -3.5625 4.1875 C-2.716875 3.795625 -1.87125 3.40375 -1 3 C-0.67 2.01 -0.34 1.02 0 0 Z " fill="#0DB011" transform="translate(395,444)"/>
<path d="M0 0 C1.37577361 0.11617644 2.75061045 0.24345777 4.125 0.375 C4.89070312 0.44460938 5.65640625 0.51421875 6.4453125 0.5859375 C9 1 9 1 11.88671875 2.0078125 C16.26392703 3.40280736 20.51022099 3.44568494 25.07421875 3.65625 C28 4 28 4 31 6 C33.0492094 6.45139459 33.0492094 6.45139459 35.1875 6.625 C36.445625 6.74875 37.70375 6.8725 39 7 C39 7.33 39 7.66 39 8 C31.89020337 8.24975194 25.34025444 7.58767907 18.375 6.1875 C17.48554688 6.02185547 16.59609375 5.85621094 15.6796875 5.68554688 C10.18693073 4.61526706 5.18399012 3.10863934 0 1 C0 0.67 0 0.34 0 0 Z " fill="#4AB247" transform="translate(183,485)"/>
<path d="M0 0 C-1.32 0.33 -2.64 0.66 -4 1 C-4 1.66 -4 2.32 -4 3 C-5.134375 3.268125 -6.26875 3.53625 -7.4375 3.8125 C-9.2009375 4.4003125 -9.2009375 4.4003125 -11 5 C-11.33 5.99 -11.66 6.98 -12 8 C-17.3212615 9.08318169 -22.63486869 10.152874 -28 11 C-24.39845092 7.94894676 -20.42191739 6.27058861 -16.125 4.4375 C-15.43019531 4.13392578 -14.73539063 3.83035156 -14.01953125 3.51757812 C-2.7265625 -1.36328125 -2.7265625 -1.36328125 0 0 Z " fill="#1FA923" transform="translate(169,20)"/>
<path d="M0 0 C9.96285862 3.35432928 18.91615836 8.80329425 28 14 C24.86650268 15.04449911 24.01031744 14.93423645 21 14 C21 13.34 21 12.68 21 12 C20.01 12 19.02 12 18 12 C18 11.34 18 10.68 18 10 C16.71222656 9.60167969 16.71222656 9.60167969 15.3984375 9.1953125 C11.97089192 7.98976199 8.85826202 6.52755614 5.625 4.875 C4.56539063 4.33617187 3.50578125 3.79734375 2.4140625 3.2421875 C1.61742187 2.83226562 0.82078125 2.42234375 0 2 C0 1.34 0 0.68 0 0 Z " fill="#1DA321" transform="translate(351,27)"/>
<path d="M0 0 C1.32 0 2.64 0 4 0 C2.36047417 4.6393176 -0.06871052 8.63855858 -2.625 12.8125 C-3.04523438 13.50537109 -3.46546875 14.19824219 -3.8984375 14.91210938 C-4.9289467 16.61010748 -5.96401681 18.30533614 -7 20 C-8.09658936 16.71023192 -7.79953138 15.28696233 -7 12 C-6.34 12 -5.68 12 -5 12 C-5 10.68 -5 9.36 -5 8 C-4.01 8 -3.02 8 -2 8 C-1.34 5.36 -0.68 2.72 0 0 Z " fill="#1CA71D" transform="translate(459,370)"/>
<path d="M0 0 C0.66 1.32 1.32 2.64 2 4 C1.21625 4.5775 0.4325 5.155 -0.375 5.75 C-3.08413267 7.72053686 -3.08413267 7.72053686 -3.875 10.1875 C-4.24625 10.785625 -4.6175 11.38375 -5 12 C-8.625 12.75 -8.625 12.75 -12 13 C-8.19524578 8.43969176 -4.25030379 4.14910608 0 0 Z " fill="#13AF17" transform="translate(80,73)"/>
<path d="M0 0 C7.71949534 4.23327164 14.39460165 10.23784399 21 16 C17.79604584 16 15.90600261 15.25664978 13 14 C12.67 14.99 12.34 15.98 12 17 C11 14 11 14 11 10 C9.02152967 8.27104233 9.02152967 8.27104233 6.5 6.875 C4.97075443 5.96406051 3.46203918 5.01530499 2 4 C2 3.34 2 2.68 2 2 C1.34 2 0.68 2 0 2 C0 1.34 0 0.68 0 0 Z " fill="#209E20" transform="translate(395,53)"/>
<path d="M0 0 C2.62696707 2.3806889 3.92662351 4.13689348 4.23046875 7.7109375 C4.20224375 9.66615995 4.14074988 11.62123889 4.04296875 13.57421875 C3.81256423 16.0109487 3.81256423 16.0109487 5 18 C5.04022391 20.3329866 5.04320247 22.66706666 5 25 C2.56171719 21.34257578 2.07794133 17.87133945 1.375 13.625 C1.2409375 12.86960937 1.106875 12.11421875 0.96875 11.3359375 C0.31415254 7.51522581 -0.17057836 3.89228807 0 0 Z " fill="#1BA91D" transform="translate(8,285)"/>
<path d="M0 0 C0.99 0.33 1.98 0.66 3 1 C2.01 1.495 2.01 1.495 1 2 C1.33 2.99 1.66 3.98 2 5 C2.66 5.33 3.32 5.66 4 6 C5.48852967 10.465589 4.69425312 14.44878513 4 19 C3.67 19 3.34 19 3 19 C2.9071875 17.2675 2.9071875 17.2675 2.8125 15.5 C2.22381018 10.50505606 -0.10663093 7.01441612 -3 3 C-2.01 2.01 -1.02 1.02 0 0 Z " fill="#B5E5B7" transform="translate(330,221)"/>
<path d="M0 0 C4.77826683 2.21431878 8.78542278 4.88121286 13 8 C12.01 8.66 11.02 9.32 10 10 C9.01 9.67 8.02 9.34 7 9 C7.33 8.34 7.66 7.68 8 7 C7.13375 6.814375 7.13375 6.814375 6.25 6.625 C3.97664233 5.99351176 2.0746471 5.11141809 0 4 C0 2.68 0 1.36 0 0 Z " fill="#15AE1B" transform="translate(379,42)"/>
<path d="M0 0 C0.9659657 2.60810739 1.02770914 3.89420147 0.3125 6.625 C-1.17474788 9.31621045 -2.09130302 10.0910322 -5 11 C-5.66 10.67 -6.32 10.34 -7 10 C-6.67 10.99 -6.34 11.98 -6 13 C-7 14 -7 14 -8.84765625 14.09765625 C-10.8984375 14.06510417 -12.94921875 14.03255208 -15 14 C-14.01 13.34 -13.02 12.68 -12 12 C-11.566875 11.484375 -11.13375 10.96875 -10.6875 10.4375 C-9 9 -9 9 -5.9375 8.625 C-4.968125 8.41875 -3.99875 8.2125 -3 8 C-1.58333333 5.66666667 -1.58333333 5.66666667 -1 3 C-0.67 2.01 -0.34 1.02 0 0 Z " fill="#20B327" transform="translate(338,288)"/>
<path d="M0 0 C2.31242092 2.16323247 4.0156396 4.37647804 5.6875 7.0625 C6.12449219 7.75472656 6.56148438 8.44695312 7.01171875 9.16015625 C8 11 8 11 8 13 C6.68 12.67 5.36 12.34 4 12 C4 11.34 4 10.68 4 10 C3.34 10 2.68 10 2 10 C1.87625 9.360625 1.7525 8.72125 1.625 8.0625 C1.315625 7.0415625 1.315625 7.0415625 1 6 C0.34 5.67 -0.32 5.34 -1 5 C-0.67 3.35 -0.34 1.7 0 0 Z " fill="#17A91C" transform="translate(457,120)"/>
<path d="M0 0 C0.33 1.32 0.66 2.64 1 4 C-1 5 -1 5 -3.0625 5.4375 C-3.701875 5.623125 -4.34125 5.80875 -5 6 C-5.33 6.66 -5.66 7.32 -6 8 C-7.75208859 9.00582863 -9.5058438 10.00923572 -11.27734375 10.98046875 C-13.15813666 12.09359109 -14.58468294 13.3349211 -16 15 C-16.66 14.67 -17.32 14.34 -18 14 C-12.33268868 8.72122776 -6.573451 4.10257935 0 0 Z " fill="#22A628" transform="translate(107,51)"/>
<path d="M0 0 C2.75 0.25 2.75 0.25 5 1 C4.071875 1.4021875 4.071875 1.4021875 3.125 1.8125 C0.7004767 2.95556848 0.7004767 2.95556848 -1 6 C-3.1640625 6.73046875 -3.1640625 6.73046875 -5.625 7.1875 C-6.85089844 7.42533203 -6.85089844 7.42533203 -8.1015625 7.66796875 C-9.04128906 7.83232422 -9.04128906 7.83232422 -10 8 C-9.67 7.01 -9.34 6.02 -9 5 C-8.2575 4.9175 -7.515 4.835 -6.75 4.75 C-3.8563767 4.21797869 -3.8563767 4.21797869 -2 1.875 C-1.34 1.25625 -0.68 0.6375 0 0 Z " fill="#19AC1C" transform="translate(337,474)"/>
<path d="M0 0 C1.25955231 3.77865693 0.48087189 5.03411786 -0.9375 8.6875 C-1.31777344 9.68136719 -1.69804687 10.67523438 -2.08984375 11.69921875 C-2.39019531 12.45847656 -2.69054687 13.21773438 -3 14 C-4.7106424 10.79680506 -5.48389689 8.67761637 -5 5 C-4.01 4.34 -3.02 3.68 -2 3 C-2.33 2.34 -2.66 1.68 -3 1 C-2.01 0.67 -1.02 0.34 0 0 Z " fill="#1AAA1D" transform="translate(481,327)"/>
<path d="M0 0 C4.60416626 0.60875755 8.56483324 1.84722956 12.875 3.5625 C14.02742188 4.01753906 15.17984375 4.47257812 16.3671875 4.94140625 C17.67042969 5.46541016 17.67042969 5.46541016 19 6 C19 6.33 19 6.66 19 7 C11.91429116 6.26699564 6.01869001 5.07146677 0 1 C0 0.67 0 0.34 0 0 Z " fill="#1EA123" transform="translate(325,17)"/>
<path d="M0 0 C1.0828125 0.495 1.0828125 0.495 2.1875 1 C5.01697427 2.00603529 7.02895466 2.16977402 10 2 C10.309375 2.94875 10.61875 3.8975 10.9375 4.875 C11.87394742 7.86080408 11.87394742 7.86080408 13 10 C9.74035658 8.51222697 7.06830707 6.64333184 4.25 4.4375 C3.45078125 3.81746094 2.6515625 3.19742187 1.828125 2.55859375 C1.22484375 2.04425781 0.6215625 1.52992188 0 1 C0 0.67 0 0.34 0 0 Z " fill="#18A51C" transform="translate(91,436)"/>
<path d="M0 0 C0.99 0.33 1.98 0.66 3 1 C1.38050958 2.50594681 -0.24575974 4.00460668 -1.875 5.5 C-3.23238281 6.75296875 -3.23238281 6.75296875 -4.6171875 8.03125 C-7 10 -7 10 -9 10 C-8.67 9.01 -8.34 8.02 -8 7 C-7.34 7 -6.68 7 -6 7 C-5.67 5.68 -5.34 4.36 -5 3 C-3.35 2.67 -1.7 2.34 0 2 C0 1.34 0 0.68 0 0 Z " fill="#22A620" transform="translate(409,433)"/>
<path d="M0 0 C2.95140299 0.6324435 5.488616 1.29873987 8 3 C9.625 5.9375 9.625 5.9375 11 9 C11.99 10.485 11.99 10.485 13 12 C9.34435261 10.46563424 7.01301377 8.25017578 4.25 5.4375 C3.45078125 4.63183594 2.6515625 3.82617188 1.828125 2.99609375 C0 1 0 1 0 0 Z " fill="#19A41E" transform="translate(71,417)"/>
<path d="M0 0 C0.625 1.8125 0.625 1.8125 1 4 C0.01 5.485 0.01 5.485 -1 7 C-1 8.32 -1 9.64 -1 11 C-2.32 11 -3.64 11 -5 11 C-5 11.66 -5 12.32 -5 13 C-5.66 13 -6.32 13 -7 13 C-5.35821735 8.22390502 -2.73453298 4.20617096 0 0 Z " fill="#1BAC1D" transform="translate(47,112)"/>
<path d="M0 0 C0.804375 0.495 0.804375 0.495 1.625 1 C4.5391061 2.22699204 6.86867708 2.14233286 10 2 C10.33 2.66 10.66 3.32 11 4 C10.67 4.66 10.34 5.32 10 6 C10.66 6 11.32 6 12 6 C12.33 6.99 12.66 7.98 13 9 C7.97290493 7.42903279 3.97133531 4.38006951 0 1 C0 0.67 0 0.34 0 0 Z " fill="#15A31B" transform="translate(107,448)"/>
<path d="M0 0 C-0.75 2.4375 -0.75 2.4375 -2 5 C-3.9375 5.625 -3.9375 5.625 -6 6 C-7.73026102 7.47890069 -7.73026102 7.47890069 -9 9 C-9.99 8.67 -10.98 8.34 -12 8 C-4.43243243 0 -4.43243243 0 0 0 Z " fill="#1DAD21" transform="translate(120,43)"/>
<path d="M0 0 C0.33 0 0.66 0 1 0 C1.33808686 2.06172613 1.67027361 4.1244203 2 6.1875 C2.185625 7.33605469 2.37125 8.48460937 2.5625 9.66796875 C2.93489477 12.50415393 3.08596021 15.14719564 3 18 C1.5393715 15.35261084 1 14.10551666 1 11 C0.34 10.67 -0.32 10.34 -1 10 C-1.02689216 8.52093108 -1.04634621 7.04172517 -1.0625 5.5625 C-1.07410156 4.73878906 -1.08570313 3.91507813 -1.09765625 3.06640625 C-1 1 -1 1 0 0 Z " fill="#22A625" transform="translate(490,203)"/>
<path d="M0 0 C2.44814179 3.0296652 4.09452853 6.07549599 5.6875 9.625 C6.12449219 10.58664063 6.56148438 11.54828125 7.01171875 12.5390625 C8 15 8 15 8 17 C7.34 17 6.68 17 6 17 C6 15.68 6 14.36 6 13 C5.34 13 4.68 13 4 13 C-0.59225513 4.738041 -0.59225513 4.738041 0 0 Z " fill="#22A422" transform="translate(465,133)"/>
<path d="M0 0 C1.56393356 3.97376829 0.36145292 6.81377903 -0.9375 10.75 C-1.31777344 11.92046875 -1.69804687 13.0909375 -2.08984375 14.296875 C-2.39019531 15.18890625 -2.69054687 16.0809375 -3 17 C-4.30660357 12.70272603 -3.6596762 9.39784135 -3 5 C-2.34 5 -1.68 5 -1 5 C-0.67 3.35 -0.34 1.7 0 0 Z " fill="#24A427" transform="translate(486,310)"/>
<path d="M0 0 C0.99 0 1.98 0 3 0 C3.33 0.66 3.66 1.32 4 2 C7.71279469 3.23759823 11.31306346 3.35608897 15.1875 3.5625 C15.93708984 3.60568359 16.68667969 3.64886719 17.45898438 3.69335938 C19.30578375 3.79922685 21.15286834 3.9000976 23 4 C23 4.33 23 4.66 23 5 C20.29105233 5.08144943 17.58458737 5.14070614 14.875 5.1875 C13.73417969 5.22520508 13.73417969 5.22520508 12.5703125 5.26367188 C7.5975739 5.32797453 4.36383518 4.65594442 0 2 C0 1.34 0 0.68 0 0 Z " fill="#D3FBD4" transform="translate(153,394)"/>
<path d="M0 0 C0.98120464 3.05263664 0.98120464 4.94736336 0 8 C-0.99 8 -1.98 8 -3 8 C-3 7.34 -3 6.68 -3 6 C-3.66 5.67 -4.32 5.34 -5 5 C-4 2 -4 2 -1.9375 0.8125 C-1.298125 0.544375 -0.65875 0.27625 0 0 Z " fill="#10B017" transform="translate(488,302)"/>
<path d="M0 0 C2.31 0 4.62 0 7 0 C7.33 0.99 7.66 1.98 8 3 C8.99 3.33 9.98 3.66 11 4 C11.33 4.99 11.66 5.98 12 7 C7.69235185 5.43358249 3.93828536 3.31663844 0 1 C0 0.67 0 0.34 0 0 Z " fill="#179F1A" transform="translate(123,459)"/>
<path d="M0 0 C1.32 0.33 2.64 0.66 4 1 C2.2126038 2.33905267 0.41995047 3.67109066 -1.375 5 C-2.37273437 5.7425 -3.37046875 6.485 -4.3984375 7.25 C-7 9 -7 9 -9 9 C-9 8.34 -9 7.68 -9 7 C-8.01 7 -7.02 7 -6 7 C-6 6.34 -6 5.68 -6 5 C-5.195625 4.731875 -4.39125 4.46375 -3.5625 4.1875 C-2.716875 3.795625 -1.87125 3.40375 -1 3 C-0.67 2.01 -0.34 1.02 0 0 Z " fill="#1FA020" transform="translate(395,444)"/>
<path d="M0 0 C0.99 0.33 1.98 0.66 3 1 C3.25 3.25 3.25 3.25 3 6 C1 8.3125 1 8.3125 -1 10 C-0.67 6.7 -0.34 3.4 0 0 Z " fill="#B2E5B9" transform="translate(366,162)"/>
<path d="M0 0 C0.33 0.66 0.66 1.32 1 2 C0.0625 4.125 0.0625 4.125 -1 6 C-1.66 6 -2.32 6 -3 6 C-3 7.32 -3 8.64 -3 10 C-4.32 10.33 -5.64 10.66 -7 11 C-5.22054913 6.95579349 -2.60470327 3.53921513 0 0 Z " fill="#1FAB23" transform="translate(55,101)"/>
<path d="M0 0 C1.32 0 2.64 0 4 0 C4 0.66 4 1.32 4 2 C5.32 2.33 6.64 2.66 8 3 C8 5.97 8 8.94 8 12 C7.67 12 7.34 12 7 12 C6.91363281 11.37351562 6.82726562 10.74703125 6.73828125 10.1015625 C6.31373291 7.63217125 5.85727584 5.35643158 5 3 C2.52985528 1.32386813 2.52985528 1.32386813 0 1 C0 0.67 0 0.34 0 0 Z " fill="#20B329" transform="translate(365,96)"/>
<path d="M0 0 C2.475 0.495 2.475 0.495 5 1 C5.33 3.31 5.66 5.62 6 8 C1.125 3.375 1.125 3.375 0 0 Z " fill="#15A51C" transform="translate(57,400)"/>
<path d="M0 0 C0.33 0 0.66 0 1 0 C1 2.97 1 5.94 1 9 C0.34 9 -0.32 9 -1 9 C-1.33 10.65 -1.66 12.3 -2 14 C-3.25127906 10.45332822 -2.72285053 8.27746562 -1.5625 4.75 C-1.27503906 3.85796875 -0.98757812 2.9659375 -0.69140625 2.046875 C-0.46324219 1.37140625 -0.23507812 0.6959375 0 0 Z " fill="#22A725" transform="translate(14,183)"/>
<path d="M0 0 C0.99 0.33 1.98 0.66 3 1 C2.67 1.66 2.34 2.32 2 3 C0 3.66666667 -2 4.33333333 -4 5 C-4.33 5.66 -4.66 6.32 -5 7 C-6.32 6.67 -7.64 6.34 -9 6 C-7.57140593 4.96674014 -6.13177617 3.94872366 -4.6875 2.9375 C-3.88699219 2.36902344 -3.08648437 1.80054688 -2.26171875 1.21484375 C-1.51535156 0.81394531 -0.76898438 0.41304687 0 0 Z " fill="#2BB432" transform="translate(368,171)"/>
<path d="M0 0 C3.91402949 1.26941497 5.79072873 2.51167694 8 6 C7.236875 5.690625 6.47375 5.38125 5.6875 5.0625 C3.81210323 4.32106407 1.91315348 3.63771783 0 3 C-0.33 3.99 -0.66 4.98 -1 6 C-1.33 5.01 -1.66 4.02 -2 3 C-1.34 2.01 -0.68 1.02 0 0 Z " fill="#17A61D" transform="translate(408,64)"/>
<path d="M0 0 C2.96404505 2.80804268 5.44499019 5.18315774 7 9 C5.68 9.33 4.36 9.66 3 10 C1.84189935 7.68379869 1.49487762 5.53624783 1 3 C0.67 2.01 0.34 1.02 0 0 Z " fill="#1FA326" transform="translate(448,107)"/>
<path d="M0 0 C5.80205656 5.64524422 5.80205656 5.64524422 8 9 C8 9.66 8 10.32 8 11 C4.18985068 9.72995023 3.82372543 8.48886603 2 5 C1.30177383 3.34630643 0.62501395 1.68272986 0 0 Z " fill="#1E9E22" transform="translate(440,96)"/>
<path d="M0 0 C2 1.375 2 1.375 4 3 C4 3.66 4 4.32 4 5 C4.61875 5.2475 5.2375 5.495 5.875 5.75 C8.35068687 7.20628639 8.95125002 8.37812506 10 11 C8 11 8 11 6.30859375 9.35546875 C5.38240234 8.28232422 5.38240234 8.28232422 4.4375 7.1875 C3.81746094 6.47980469 3.19742187 5.77210937 2.55859375 5.04296875 C1 3 1 3 0 0 Z " fill="#219C24" transform="translate(425,79)"/>
<path d="M0 0 C0.66 0 1.32 0 2 0 C1.6875 1.9375 1.6875 1.9375 1 4 C0.01 4.33 -0.98 4.66 -2 5 C-2.33 5.99 -2.66 6.98 -3 8 C-3.99 7.67 -4.98 7.34 -6 7 C-5.04882866 5.8274869 -4.08882991 4.66212985 -3.125 3.5 C-2.59132813 2.8503125 -2.05765625 2.200625 -1.5078125 1.53125 C-0.76144531 0.77328125 -0.76144531 0.77328125 0 0 Z " fill="#1FAB22" transform="translate(87,66)"/>
<path d="M0 0 C-1.423125 0.6496875 -1.423125 0.6496875 -2.875 1.3125 C-6.20041937 2.79302201 -6.20041937 2.79302201 -8 6 C-8.66 6 -9.32 6 -10 6 C-9.8125 3.625 -9.8125 3.625 -9 1 C-5.71803757 -0.95143712 -3.5838203 -1.32734085 0 0 Z " fill="#20B12D" transform="translate(160,100)"/>
<path d="M0 0 C2.64 0 5.28 0 8 0 C8.33 0.66 8.66 1.32 9 2 C4.545 2.495 4.545 2.495 0 3 C0 2.01 0 1.02 0 0 Z " fill="#0FAD10" transform="translate(286,9)"/>
<path d="M0 0 C0.33 0.99 0.66 1.98 1 3 C-3.625 7.875 -3.625 7.875 -7 9 C-7 8.34 -7 7.68 -7 7 C-5.01739574 5.31267723 -3.0167658 3.64633943 -1 2 C-0.67 1.34 -0.34 0.68 0 0 Z " fill="#8DEA92" transform="translate(371,165)"/>
<path d="M0 0 C3 1 3 1 4.25 2.8125 C5.11637742 5.33943414 4.88492145 6.52221994 4 9 C3.525625 8.34 3.05125 7.68 2.5625 7 C2.046875 6.34 1.53125 5.68 1 5 C0.67 5 0.34 5 0 5 C0 3.35 0 1.7 0 0 Z " fill="#94EB94" transform="translate(367,98)"/>
<path d="M0 0 C3.96 0.33 7.92 0.66 12 1 C8.71299843 2.64350079 6.52069985 3.41321669 3 4 C3 3.34 3 2.68 3 2 C2.01 1.67 1.02 1.34 0 1 C0 0.67 0 0.34 0 0 Z " fill="#13AF17" transform="translate(299,11)"/>
<path d="M0 0 C4.875 3.625 4.875 3.625 6 7 C4.68 7 3.36 7 2 7 C1.34 4.69 0.68 2.38 0 0 Z " fill="#12B314" transform="translate(33,362)"/>
<path d="M0 0 C0.33 0.66 0.66 1.32 1 2 C0.22265625 3.9453125 0.22265625 3.9453125 -0.9375 6.125 C-1.31777344 6.84945313 -1.69804687 7.57390625 -2.08984375 8.3203125 C-2.39019531 8.87460937 -2.69054687 9.42890625 -3 10 C-4.0625 8.125 -4.0625 8.125 -5 6 C-4.67 5.34 -4.34 4.68 -4 4 C-3.34 4 -2.68 4 -2 4 C-1.34 2.68 -0.68 1.36 0 0 Z " fill="#1DA41D" transform="translate(469,357)"/>
<path d="M0 0 C0.33 1.32 0.66 2.64 1 4 C1.99 4 2.98 4 4 4 C4 4.66 4 5.32 4 6 C2.02 6 0.04 6 -2 6 C-2 3.17555626 -1.98538594 1.98538594 0 0 Z " fill="#0DB511" transform="translate(470,146)"/>
<path d="M0 0 C2.0625 0.4375 2.0625 0.4375 4 1 C2.35 2.65 0.7 4.3 -1 6 C-1.042721 4.33388095 -1.04063832 2.66617115 -1 1 C-0.67 0.67 -0.34 0.34 0 0 Z " fill="#1DA91D" transform="translate(437,403)"/>
<path d="M0 0 C1.65 1.32 3.3 2.64 5 4 C4.67 4.66 4.34 5.32 4 6 C2.68 5.67 1.36 5.34 0 5 C-0.5625 3.0625 -0.5625 3.0625 -1 1 C-0.67 0.67 -0.34 0.34 0 0 Z " fill="#19A81D" transform="translate(435,90)"/>
<path d="M0 0 C-0.33 1.32 -0.66 2.64 -1 4 C-1.99 3.67 -2.98 3.34 -4 3 C-4 3.66 -4 4.32 -4 5 C-5.32 4.67 -6.64 4.34 -8 4 C-2.25 0 -2.25 0 0 0 Z " fill="#21AB26" transform="translate(128,38)"/>
<path d="M0 0 C0.99 0.33 1.98 0.66 3 1 C2.34 1 1.68 1 1 1 C0.9175 1.61875 0.835 2.2375 0.75 2.875 C0 5 0 5 -2.0625 6.25 C-3.0215625 6.62125 -3.0215625 6.62125 -4 7 C-3.67 6.01 -3.34 5.02 -3 4 C-2.34 4 -1.68 4 -1 4 C-0.67 2.68 -0.34 1.36 0 0 Z " fill="#15A814" transform="translate(404,436)"/>
<path d="M0 0 C0.66 0.99 1.32 1.98 2 3 C0.35 4.65 -1.3 6.3 -3 8 C-3 4.42424104 -1.91159393 2.94704065 0 0 Z " fill="#21A826" transform="translate(39,125)"/>
<path d="M0 0 C0.33 0.99 0.66 1.98 1 3 C-1.97 5.475 -1.97 5.475 -5 8 C-5.66 7.67 -6.32 7.34 -7 7 C-4.69 4.69 -2.38 2.38 0 0 Z " fill="#24A725" transform="translate(80,73)"/>
<path d="" fill="#FFFFFF" transform="translate(0,0)"/>
<path d="" fill="#FFFFFF" transform="translate(0,0)"/>
<path d="" fill="#FFFFFF" transform="translate(0,0)"/>
<path d="" fill="#FFFFFF" transform="translate(0,0)"/>
<path d="" fill="#FFFFFF" transform="translate(0,0)"/>
<path d="" fill="#FFFFFF" transform="translate(0,0)"/>
<path d="" fill="#FFFFFF" transform="translate(0,0)"/>
<path d="" fill="#FFFFFF" transform="translate(0,0)"/>
<path d="" fill="#FFFFFF" transform="translate(0,0)"/>
<path d="" fill="#FFFFFF" transform="translate(0,0)"/>
<path d="" fill="#FFFFFF" transform="translate(0,0)"/>
<path d="" fill="#FFFFFF" transform="translate(0,0)"/>
<path d="" fill="#FFFFFF" transform="translate(0,0)"/>
<path d="" fill="#FFFFFF" transform="translate(0,0)"/>
<path d="" fill="#FFFFFF" transform="translate(0,0)"/>
<path d="" fill="#FFFFFF" transform="translate(0,0)"/>
<path d="" fill="#FFFFFF" transform="translate(0,0)"/>
<path d="" fill="#FFFFFF" transform="translate(0,0)"/>
<path d="" fill="#FFFFFF" transform="translate(0,0)"/>
<path d="" fill="#FFFFFF" transform="translate(0,0)"/>
<path d="" fill="#FFFFFF" transform="translate(0,0)"/>
</svg>
